<svg width="25" height="24" viewBox="0 0 25 24" fill="none" xmlns="http://www.w3.org/2000/svg">
<g filter="url(#filter0_d)">
<path d="M14.95 1.14403C16.635 0.648028 17.934 1.41403 18.527 2.32303C19.2 2.09203 19.858 1.84203 20.538 1.61503C20.5249 2.30139 20.2117 2.94755 19.681 3.38303C20.366 3.55303 20.985 2.89203 20.985 2.89203C20.816 3.89203 19.979 4.68003 19.422 4.91603C19.191 11.666 16.247 16.133 9.34498 15.998H8.89898C8.48898 15.998 4.73498 15.538 4.00098 14.111C6.27198 14.307 7.89398 13.689 8.69398 12.934C7.73398 12.634 6.01498 12.457 5.71498 9.98403C6.06398 10.09 6.27898 10.212 6.90498 10.103C5.70498 9.24703 4.37398 8.53003 4.44798 6.33003C4.73298 6.65803 5.51498 6.86603 5.78798 6.80203C5.08498 6.56103 3.81798 3.44203 4.89398 1.85003C6.71198 3.70403 8.62898 5.45603 12.046 5.62303C12.254 3.33003 13.183 1.79303 14.95 1.14403Z" fill="white"/>
</g>
<defs>
<filter id="filter0_d" x="0" y="0" width="25" height="25" filterUnits="userSpaceOnUse" color-interpolation-filters="sRGB">
<feFlood flood-opacity="0" result="BackgroundImageFix"/>
<feColorMatrix in="SourceAlpha" type="matrix" values="0 0 0 0 0 0 0 0 0 0 0 0 0 0 0 0 0 0 127 0"/>
<feOffset dy="4"/>
<feGaussianBlur stdDeviation="2"/>
<feColorMatrix type="matrix" values="0 0 0 0 0 0 0 0 0 0 0 0 0 0 0 0 0 0 0.25 0"/>
<feBlend mode="normal" in2="BackgroundImageFix" result="effect1_dropShadow"/>
<feBlend mode="normal" in="SourceGraphic" in2="effect1_dropShadow" result="shape"/>
</filter>
</defs>
</svg>
